<?xml version="1.0" standalone="no"?>
<!DOCTYPE svg PUBLIC "-//W3C//DTD SVG 20010904//EN"
 "http://www.w3.org/TR/2001/REC-SVG-20010904/DTD/svg10.dtd">
<svg version="1.0" xmlns="http://www.w3.org/2000/svg"
 width="260.000000pt" height="260.000000pt" viewBox="0 0 260.000000 260.000000"
 preserveAspectRatio="xMidYMid meet">
<metadata>
Created by potrace 1.11, written by Peter Selinger 2001-2013
</metadata>
<g transform="translate(0.000000,260.000000) scale(0.100000,-0.100000)"
fill="#000000" stroke="none">
<path d="M499 1710 c-115 -19 -211 -95 -249 -198 -44 -116 -13 -257 75 -342
l32 -31 49 56 c40 48 46 59 36 73 -55 75 -65 152 -29 222 30 60 87 91 176 97
67 4 157 -14 155 -32 0 -6 -18 -47 -39 -92 l-39 -82 -60 -3 -60 -3 -17 -55
-17 -55 60 -3 c41 -2 58 -7 55 -15 -2 -7 -17 -55 -32 -107 -63 -216 -134 -312
-230 -312 -18 0 -42 5 -53 11 -29 16 -44 68 -32 111 6 19 10 38 10 42 0 11
-132 79 -146 74 -17 -7 -34 -70 -34 -129 0 -87 50 -164 135 -210 32 -18 57
-22 130 -22 80 0 96 3 142 29 117 65 177 166 258 438 l26 87 71 3 72 3 17 58
17 57 -69 0 c-38 0 -69 3 -69 6 0 3 12 30 26 61 25 52 28 55 58 49 17 -3 56
-9 87 -12 l56 -7 -15 -50 c-44 -151 70 -307 225 -307 61 0 59 -2 41 96 -10 59
-13 63 -42 68 -47 9 -74 32 -87 76 -22 72 30 140 106 140 50 0 71 -14 97 -63
22 -41 23 -50 21 -272 -2 -126 -6 -256 -9 -287 l-6 -58 90 0 90 0 133 235 134
234 3 -234 2 -235 70 0 69 0 85 81 c155 147 276 337 317 500 44 171 -17 309
-135 309 -85 0 -130 -103 -70 -163 14 -14 38 -27 52 -29 25 -3 27 -7 30 -54 4
-65 -25 -155 -80 -249 -46 -78 -112 -168 -152 -204 l-26 -24 0 252 0 252 -86
-3 -87 -3 -127 -223 c-70 -123 -130 -225 -133 -228 -3 -3 -4 77 -3 178 1 213
-10 262 -76 334 -51 55 -115 78 -207 72 -65 -3 -67 -3 -86 26 -34 52 -78 70
-167 69 -68 0 -87 -5 -145 -33 -60 -30 -69 -32 -97 -21 -115 47 -216 64 -297
51z m621 -95 c30 -36 -50 -58 -130 -36 -20 6 -22 9 -10 16 55 36 119 45 140
20z"/>
</g>
</svg>
